<!-- Generated by GitHub Copilot -->
<svg xmlns="http://www.w3.org/2000/svg" viewBox="0 0 128 128" role="img" aria-labelledby="faviconTitle faviconDesc">
  <title id="faviconTitle">RamDragneel dragon emblem favicon</title>
  <desc id="faviconDesc">A warm ember icon with a stylized dragon head and coiled body.</desc>
  <defs>
    <linearGradient id="bgGradient" x1="16" y1="12" x2="112" y2="118" gradientUnits="userSpaceOnUse">
      <stop offset="0" stop-color="#190f0d" />
      <stop offset="0.55" stop-color="#2f1612" />
      <stop offset="1" stop-color="#4a1d16" />
    </linearGradient>
    <linearGradient id="bodyStroke" x1="28" y1="42" x2="104" y2="104" gradientUnits="userSpaceOnUse">
      <stop offset="0" stop-color="#ffa779" />
      <stop offset="0.5" stop-color="#ff724f" />
      <stop offset="1" stop-color="#d6372b" />
    </linearGradient>
    <radialGradient id="emberGlow" cx="0" cy="0" r="1" gradientTransform="translate(64 64) rotate(90) scale(54)">
      <stop offset="0" stop-color="#ff8d66" stop-opacity="0.25" />
      <stop offset="1" stop-color="#ff8d66" stop-opacity="0" />
    </radialGradient>
  </defs>

  <rect x="8" y="8" width="112" height="112" rx="27" fill="url(#bgGradient)" />
  <rect x="8" y="8" width="112" height="112" rx="27" fill="none" stroke="#f18f6c" stroke-opacity="0.45" stroke-width="2" />
  <circle cx="64" cy="64" r="52" fill="url(#emberGlow)" />

  <path
    d="M29 89c0-24 19-43 43-43 9 0 17 2 24 7l-10 10c-4-3-9-4-14-4-17 0-30 13-30 30 0 17 13 30 30 30 14 0 26-10 29-24-5 4-12 7-18 7-12 0-22-10-22-22s10-22 22-22c10 0 18 6 21 15"
    fill="none"
    stroke="url(#bodyStroke)"
    stroke-width="10"
    stroke-linecap="round"
    stroke-linejoin="round"
  />

  <path d="M93 44l18-10-9 20-13 5z" fill="#ffd7bb" />
  <path d="M87 60l17 5-11 13-16-4z" fill="#ff845e" />
  <ellipse cx="92" cy="66" rx="3.1" ry="2.2" fill="#fff4d3" />
  <path d="M92 63.8v4.4" stroke="#3b130e" stroke-width="1.8" stroke-linecap="round" />
</svg>